# xmcd CD database file
#
# Track frame offsets:
#	182
#	17773
#	31987
#	45246
#	58816
#	73293
#	88289
#	102186
#	114225
#	126716
#	139011
#	153096
#	167376
#	179377
#	191817
#	205544
#	219100
#	232733
#	246828
#	261005
#	273608
#	287653
#	299654
#
# Disc length: 4178 seconds
#
# Revision: 0
# Processed by: cddbd v1.5.1PL0 Copyright (c) Steve Scherf et al.
# Submitted via: CDex 1.51
#
DISCID=50105017
DTITLE=Sy Oliver and his Orchstra - 1945-1949
DYEAR=1900
DGENRE=Jazz
TTITLE0=Seventh Avenue
TTITLE1=Hey Daddy-O
TTITLE2=If You Believed inMe
TTITLE3=Slow Burn
TTITLE4=Dit Dot Dit
TTITLE5=I Want To Be Loved
TTITLE6=Lamar's Boogle
TTITLE7=Walkin' the Dog
TTITLE8=Four to Go
TTITLE9=Bread and Butter Woman
TTITLE10=Forsaking All Others
TTITLE11=Civilization
TTITLE12=You Know What the Trouble Is Baby
TTITLE13=You Can't Tell the Depth of a Well
TTITLE14=Blues Just Blues
TTITLE15=Scotty
TTITLE16=Sad Story Blues
TTITLE17=Just In Case
TTITLE18=Gran'Ma Plays the Numbers
TTITLE19=Caravan
TTITLE20=Nine O'Clock Gal
TTITLE21=That's the Gal for Me
TTITLE22=When My Sugar Walks Down the Street
EXTD=
EXTT0=
EXTT1=
EXTT2=
EXTT3=
EXTT4=
EXTT5=
EXTT6=
EXTT7=
EXTT8=
EXTT9=
EXTT10=
EXTT11=
EXTT12=
EXTT13=
EXTT14=
EXTT15=
EXTT16=
EXTT17=
EXTT18=
EXTT19=
EXTT20=
EXTT21=
EXTT22=
PLAYORDER=
